<svg data-v-0dd9719b="" version="1.0" xmlns="http://www.w3.org/2000/svg" xmlns:xlink="http://www.w3.org/1999/xlink" width="100%" height="100%" viewBox="0 0 340.000000 250.000000" preserveAspectRatio="xMidYMid meet" color-interpolation-filters="sRGB" style="margin: auto;"> <rect data-v-0dd9719b="" x="0" y="0" width="100%" height="100%" fill="#fff" fill-opacity="1" class="background"></rect> <rect data-v-0dd9719b="" x="0" y="0" width="100%" height="100%" fill="url(#watermark)" fill-opacity="1" class="watermarklayer"></rect> <g data-v-0dd9719b="" fill="#da251d" class="icon-text-wrapper icon-svg-group iconsvg" transform="translate(54.475006103515625,95.01109504699707)"><g class="iconsvg-imagesvg" transform="translate(0,0)"><g><rect fill="#da251d" fill-opacity="0" stroke-width="2" x="0" y="0" width="60" height="59.977808210961946" class="image-rect"></rect> <svg x="0" y="0" width="60" height="59.977808210961946" filtersec="colorsb9825686423" class="image-svg-svg primary" style="overflow: visible;"><svg xmlns="http://www.w3.org/2000/svg" viewBox="-0.0010022380156442523 0 14.738336563110352 14.732953071594238"><g><g fill="#da251d" fill-rule="evenodd"><path d="M12.58 2.15A7.34 7.34 0 0 0 7.72 0v3.61a6.12 6.12 0 0 0 .8 3.08 6.12 6.12 0 0 0 2.27 2.24l3.13 1.8a7.38 7.38 0 0 0-1.34-8.59zM9.28 14.48a7.35 7.35 0 0 0 4.29-3.13l-3.13-1.8a6 6 0 0 0-6.15 0l-3.12 1.8a7.29 7.29 0 0 0 1 1.23 7.37 7.37 0 0 0 7.12 1.9zM.25 5.46a7.35 7.35 0 0 0 .57 5.28l3.13-1.8A6.12 6.12 0 0 0 6.22 6.7 6.12 6.12 0 0 0 7 3.61V0A7.37 7.37 0 0 0 .25 5.46z"></path></g></g></svg></svg> <!----></g></g> <g transform="translate(67,5.8926544189453125)"><g data-gra="path-name" fill-rule="" class="tp-name iconsvg-namesvg" transform="translate(0,0)"><g transform="scale(1)"><g><path d="M7.14-25.76L35.32-25.76 35.32-22.44 7.14-22.44 7.14-25.76ZM39.65-12.41L21.29-12.41 8.63 2.04 31.15-0.38 28.05-4.89 30.81-6.76 38.51 4.38 35.74 6.29 33.32 2.72 4.38 5.87 4.38 1.79 16.83-12.41 2.85-12.41 2.85-15.77 39.65-15.77 39.65-12.41ZM65.37-26.78L65.37-24.48 82.41-24.48 82.41-21.12 65.37-21.12 65.37-18.87 77.22-18.87 77.22-19.64 80.58-19.64 80.58 2.38Q80.58 4 79.45 5.1 78.33 6.21 76.75 6.21L76.75 6.21 72.25 6.21 72.25 2.85 76.75 2.85Q77.22 2.85 77.22 2.38L77.22 2.38 77.22-15.51 50.28-15.51 50.28 6.21 46.92 6.21 46.92-18.87 62.05-18.87 62.05-21.12 45.18-21.12 45.18-24.48 62.05-24.48 62.05-26.78 65.37-26.78ZM75.56 0.81L65.37 0.81 65.37 6.08 62.05 6.08 62.05 0.81 51.85 0.81 51.85-2.51 62.05-2.51 62.05-6.21 53.13-6.21 53.13-9.56 56.19-9.56 53.93-12.2 56.44-14.37 59.97-10.24 59.16-9.56 67.11-9.56 70.81-14.32 73.44-12.24 71.36-9.56 74.29-9.56 74.29-6.21 65.37-6.21 65.37-2.51 75.56-2.51 75.56 0.81ZM124.78-25.08L124.78-12.92Q124.78-11.31 123.65-10.2 122.53-9.1 120.96-9.1L120.96-9.1 109.06-9.1 109.06-24.31 121.42-24.31 121.42-25.08 124.78-25.08ZM121.42-12.92L121.42-21 112.37-21 112.37-12.41 120.96-12.41Q121.17-12.41 121.3-12.56 121.42-12.71 121.42-12.92L121.42-12.92ZM123-7.95L123 2.51Q123 4.08 121.87 5.19 120.74 6.29 119.17 6.29L119.17 6.29 90.19 6.29 90.19-7.18 119.64-7.18 119.64-7.95 123-7.95ZM119.64-3.83L93.54-3.83 93.54-2.13 119.64-2.13 119.64-3.83ZM93.54 1.19L93.54 2.98 119.17 2.98Q119.64 2.98 119.64 2.51L119.64 2.51 119.64 1.19 93.54 1.19ZM88.23-9.31L87.59-10.88Q88.14-11.09 88.95-11.48 89.76-11.86 90.69-12.37 91.63-12.88 92.59-13.52 93.54-14.15 94.39-14.88L94.39-14.88 88.4-14.88 88.4-18.23 96.86-18.23Q96.98-18.66 96.98-19.21L96.98-19.21 96.98-21.08 92.06-21.08Q91.63-20.49 91.16-19.85 90.69-19.21 90.14-18.57L90.14-18.57 87.59-20.78Q88.61-21.93 89.36-23.04 90.1-24.14 90.57-24.99L90.57-24.99Q91.12-26.01 91.5-26.95L91.5-26.95 94.65-25.8Q94.61-25.76 94.48-25.37 94.35-24.99 94.01-24.4L94.01-24.4 106.8-24.4 106.8-21.08 100.34-21.08 100.34-19.21Q100.34-18.96 100.32-18.7 100.3-18.45 100.26-18.23L100.26-18.23 107.99-18.23 107.99-14.88 101.45-14.88 108.25-11.05 106.59-8.16 98.94-12.45 100.3-14.88 98.9-14.88Q97.33-12.67 94.35-10.67L94.35-10.67Q93.33-9.99 92.35-9.46 91.38-8.93 90.61-8.54 89.84-8.16 89.36-7.95 88.87-7.74 88.83-7.74L88.83-7.74 88.23-9.31ZM150.37-10.29L150.37-8.33 166.9-8.33 166.9-4.97 157.5-4.97 166.56 3.57 164.26 5.99 154.19-3.53 155.55-4.97 150.37-4.97 150.37 6.21 147.05 6.21 147.05-4.97 143.18-4.97Q142.67-4.08 141.76-2.74 140.84-1.4 139.46 0.11 138.08 1.62 136.17 3.21 134.26 4.8 131.79 6.25L131.79 6.25 130.13 3.36Q133.62 1.32 135.81-0.96 138-3.23 139.23-4.97L139.23-4.97 130.52-4.97 130.52-8.33 147.05-8.33 147.05-10.29 133.71-10.29 133.71-25.63 160.35-25.63 160.35-26.56 163.71-26.56 163.71-14.11Q163.71-12.5 162.58-11.39 161.46-10.29 159.88-10.29L159.88-10.29 150.37-10.29ZM150.37-13.64L159.88-13.64Q160.35-13.64 160.35-14.11L160.35-14.11 160.35-16.19 150.37-16.19 150.37-13.64ZM160.35-19.55L160.35-22.27 150.37-22.27 150.37-19.55 160.35-19.55ZM147.05-22.27L137.06-22.27 137.06-19.55 147.05-19.55 147.05-22.27ZM137.06-13.64L147.05-13.64 147.05-16.19 137.06-16.19 137.06-13.64Z" transform="translate(-2.8499999046325684, 26.950000762939453)"></path></g> <!----> <!----> <!----> <!----> <!----> <!----> <!----></g></g> <g data-gra="path-slogan" fill-rule="" class="tp-slogan iconsvg-slogansvg" fill="#333" transform="translate(32.219993591308594,40.2400016784668)"><!----> <!----> <g transform="scale(1, 1)"><g transform="scale(1)"><path d="M7.83-8.58L4.59-3.47L4.59 0L3.42 0L3.42-3.47L0.19-8.58L1.55-8.58L3.98-4.45L6.47-8.58L7.83-8.58ZM14.53-3.19L14.53-8.58L15.70-8.58L15.70-3.05Q15.56 0.05 12.19 0.14L12.19 0.14Q9.05 0.05 8.91-2.86L8.91-2.86L8.91-8.58L10.08-8.58L10.08-3.19Q10.13-0.84 12.23-0.80L12.23-0.80Q14.53-0.84 14.53-3.19L14.53-3.19ZM18.89-8.58L23.20-1.64L23.20-8.58L24.33-8.58L24.33 0L23.02 0L18.66-6.94L18.61-6.94L18.61 0L17.48 0L17.48-8.58L18.89-8.58ZM27.52-8.58L31.83-1.64L31.83-8.58L32.95-8.58L32.95 0L31.64 0L27.28-6.94L27.23-6.94L27.23 0L26.11 0L26.11-8.58L27.52-8.58ZM40.41 0L39.56-2.48L36.09-2.48L35.20 0L34.03 0L37.27-8.58L38.58-8.58L41.67 0L40.41 0ZM37.83-7.31L36.47-3.52L39.14-3.52L37.88-7.31L37.83-7.31ZM44.11-8.58L48.42-1.64L48.42-8.58L49.55-8.58L49.55 0L48.23 0L43.88-6.94L43.83-6.94L43.83 0L42.70 0L42.70-8.58L44.11-8.58ZM55.50-1.03L60.80-1.03L60.80 0L54.05 0L54.05-0.94L59.30-7.59L54.42-7.59L54.42-8.58L60.80-8.58L60.80-7.59L55.50-1.03ZM63.09-5.06L67.59-5.06L67.59-8.58L68.77-8.58L68.77 0L67.59 0L67.59-3.98L63.09-3.98L63.09 0L61.92 0L61.92-8.58L63.09-8.58L63.09-5.06ZM70.73-8.58L71.91-8.58L71.91 0L70.73 0L70.73-8.58ZM80.30-3.61L77.67-3.61L77.67-4.59L81.42-4.59L81.42 0L80.67 0L80.39-1.08Q79.41 0.09 77.58 0.14L77.58 0.14Q75.84 0.14 74.91-0.75L74.91-0.75Q73.50-2.06 73.55-4.36L73.55-4.36Q73.88-8.63 77.63-8.81L77.63-8.81Q80.81-8.63 81.28-6L81.28-6L80.16-6Q79.69-7.78 77.58-7.83L77.58-7.83Q74.91-7.64 74.77-4.31L74.77-4.31Q74.77-0.75 77.63-0.75L77.63-0.75Q78.66-0.75 79.41-1.31L79.41-1.31Q80.34-2.06 80.30-3.61L80.30-3.61ZM88.88-3.19L88.88-8.58L90.05-8.58L90.05-3.05Q89.91 0.05 86.53 0.14L86.53 0.14Q83.39 0.05 83.25-2.86L83.25-2.86L83.25-8.58L84.42-8.58L84.42-3.19Q84.47-0.84 86.58-0.80L86.58-0.80Q88.88-0.84 88.88-3.19L88.88-3.19ZM98.63-4.27L98.63-4.27Q98.44-7.64 95.63-7.83L95.63-7.83Q92.77-7.69 92.63-4.27L92.63-4.27Q92.77-0.94 95.63-0.80L95.63-0.80Q98.44-0.98 98.63-4.27ZM99.80-4.27L99.80-4.27Q99.52 0 95.63 0.14L95.63 0.14Q91.69 0 91.41-4.27L91.41-4.27Q91.64-8.72 95.63-8.81L95.63-8.81Q99.52-8.67 99.80-4.27Z" transform="translate(-0.1875, 8.8125)"></path></g></g></g></g></g><defs v-gra="od"></defs></svg>